<?xml version="1.0" standalone="no"?>
<!DOCTYPE svg PUBLIC "-//W3C//DTD SVG 20010904//EN"
 "http://www.w3.org/TR/2001/REC-SVG-20010904/DTD/svg10.dtd">
<svg version="1.0" xmlns="http://www.w3.org/2000/svg"
 width="1000.000000pt" height="1000.000000pt" viewBox="0 0 1000.000000 1000.000000"
 preserveAspectRatio="xMidYMid meet">

<g transform="translate(0.000000,1000.000000) scale(0.100000,-0.100000)"
fill="#000000" stroke="none">
<path d="M3535 7979 c-381 -39 -753 -159 -1000 -324 -57 -38 -75 -45 -100 -40
-152 30 -391 30 -494 -1 -34 -10 -68 -29 -88 -49 l-33 -33 0 -149 c0 -168 13
-263 66 -480 l37 -153 -18 -134 c-21 -158 -16 -450 9 -573 11 -55 13 -87 6
-130 -15 -91 -11 -230 9 -329 49 -239 163 -401 347 -490 50 -24 117 -49 150
-56 100 -19 134 -28 134 -38 0 -5 -23 -37 -51 -72 -104 -128 -152 -273 -129
-391 27 -141 118 -217 266 -222 36 -1 69 -6 73 -11 5 -5 11 -50 15 -100 6
-102 6 -103 -59 -124 -54 -18 -138 -105 -160 -167 -39 -109 -28 -365 24 -533
54 -174 196 -281 353 -267 117 10 198 78 234 192 10 31 22 54 27 52 5 -1 17
-27 28 -57 66 -187 227 -281 433 -251 131 19 193 83 234 241 l20 75 108 -5
c434 -20 690 29 869 165 46 36 49 37 90 25 23 -6 66 -10 96 -8 l53 3 11 -60
c7 -33 15 -72 18 -87 7 -25 3 -30 -35 -49 -102 -51 -162 -123 -194 -230 -22
-72 -14 -244 15 -353 31 -116 92 -237 142 -279 73 -63 101 -72 229 -72 99 0
121 3 155 22 83 44 111 91 140 233 10 47 21 89 25 93 4 4 17 -38 29 -93 43
-194 135 -327 253 -366 70 -23 216 -16 273 13 64 33 118 121 136 221 13 70 26
82 82 72 101 -19 330 -32 449 -26 271 13 504 88 623 200 33 32 35 37 35 100 0
36 -2 66 -4 66 -3 0 -29 -26 -60 -57 -99 -105 -240 -169 -437 -199 -126 -19
-435 -14 -599 11 -58 8 -115 13 -127 10 -25 -6 -26 -10 -48 -120 -30 -149 -68
-196 -173 -210 -167 -22 -264 81 -313 336 -27 144 -23 239 15 303 24 41 37 50
146 100 30 14 35 63 8 79 -24 16 -116 -15 -170 -56 -48 -37 -94 -112 -104
-172 -5 -30 -17 -49 -50 -78 -47 -41 -55 -61 -79 -187 -30 -158 -59 -193 -171
-205 -89 -10 -160 13 -209 66 -76 84 -126 243 -128 405 -1 94 1 106 28 160 36
70 88 112 182 147 66 26 69 26 128 11 33 -8 125 -18 205 -21 127 -5 156 -3
230 16 99 25 180 62 198 91 6 11 13 38 14 60 2 51 15 62 59 50 133 -35 357
-30 512 11 108 30 141 64 98 103 -18 16 -23 16 -87 -3 -205 -61 -456 -54 -593
16 -85 44 -114 123 -73 203 28 57 86 80 204 80 114 0 181 12 261 47 61 27 81
59 57 88 -17 20 -27 19 -112 -9 -78 -26 -244 -43 -266 -28 -11 7 -9 49 7 223
11 118 23 229 27 246 3 18 3 44 0 58 -7 27 -63 64 -136 90 -57 21 -233 45
-327 45 -39 0 -84 5 -99 10 -25 10 -26 13 -22 68 4 48 13 69 58 135 59 88 78
101 129 93 65 -10 121 41 109 101 -6 32 -37 28 -49 -6 -20 -56 -83 -54 -154 5
-48 39 -71 42 -125 14 -50 -25 -68 -25 -97 1 -18 18 -25 20 -38 9 -8 -7 -15
-18 -15 -24 0 -14 42 -56 56 -56 5 0 15 -4 23 -9 10 -7 5 -23 -26 -77 -57
-100 -67 -131 -65 -201 1 -57 0 -63 -21 -68 -12 -3 -58 -12 -102 -21 -102 -20
-193 -62 -229 -104 -30 -37 -30 -36 2 -155 10 -38 17 -75 15 -81 -6 -17 -36
-8 -141 43 -263 125 -387 404 -328 739 13 70 13 94 0 180 -42 289 -24 557 52
799 34 110 123 286 186 370 253 337 698 548 1290 611 346 37 668 -4 968 -122
197 -78 414 -206 438 -258 9 -20 19 -26 42 -26 30 0 30 1 30 54 0 53 -1 55
-47 88 -310 220 -664 342 -1061 368 -128 8 -340 0 -472 -19 -33 -4 -60 -6 -60
-5 0 2 14 43 30 92 17 50 30 106 30 125 0 53 -39 91 -144 142 -93 45 -299 105
-362 105 l-34 0 0 -49 0 -48 63 -12 c136 -27 344 -98 368 -128 17 -19 1 -78
-47 -177 -31 -65 -40 -76 -67 -81 -108 -22 -293 -81 -315 -101 -29 -28 -62
-40 -71 -26 -7 11 -204 -82 -301 -142 l-55 -34 -80 15 c-57 10 -132 13 -260
11 -161 -4 -184 -6 -221 -25 -61 -32 -69 -61 -68 -233 1 -159 19 -291 63 -471
27 -109 28 -118 15 -179 -36 -175 -39 -407 -8 -635 14 -101 14 -119 -2 -219
-15 -96 -16 -123 -5 -220 6 -61 23 -143 37 -184 14 -40 23 -76 20 -79 -13 -13
-140 -32 -219 -33 -204 0 -337 73 -337 186 0 88 74 132 205 120 169 -15 320
57 260 124 -22 24 -43 25 -73 4 -26 -18 -136 -38 -168 -30 -18 5 -22 14 -26
73 -6 82 -33 139 -85 182 -80 66 -215 79 -292 28 -61 -41 -211 -250 -267 -372
-22 -48 -28 -75 -28 -135 -1 -128 45 -185 184 -230 85 -27 168 -24 246 9 l52
22 51 -25 c131 -67 315 -74 524 -21 25 7 34 1 80 -50 89 -98 204 -170 342
-215 76 -24 89 -33 100 -67 5 -20 0 -26 -47 -46 -99 -44 -142 -129 -142 -277
0 -68 4 -95 22 -130 l22 -45 -32 -27 c-134 -111 -436 -172 -741 -150 -125 10
-140 13 -168 36 -36 31 -41 31 -67 9 -13 -12 -30 -57 -50 -136 -50 -195 -76
-222 -210 -221 -148 1 -220 46 -271 168 -59 143 -79 352 -46 481 27 104 100
184 202 220 26 9 60 22 75 27 30 11 42 35 32 62 -11 28 -45 35 -99 19 -202
-60 -325 -219 -325 -421 0 -66 -4 -81 -30 -121 -23 -37 -31 -65 -39 -133 -19
-165 -77 -238 -188 -238 -47 0 -129 38 -165 76 -33 35 -75 144 -94 242 -16 86
-18 257 -3 322 19 82 74 132 177 159 29 8 46 19 52 35 5 13 5 80 0 156 -5 73
-7 137 -4 142 3 4 23 17 44 28 50 26 98 85 111 137 10 40 14 43 63 57 79 24
111 48 141 110 26 54 27 57 16 141 -23 171 -82 297 -181 388 -95 87 -170 106
-270 68 -66 -25 -114 -63 -146 -113 l-26 -41 -63 6 c-231 22 -405 174 -475
417 -26 89 -37 287 -22 370 8 44 6 83 -10 190 -16 113 -19 167 -15 330 6 213
17 280 72 447 151 454 474 754 972 902 264 78 488 111 758 111 362 0 638 -53
880 -169 112 -53 265 -147 280 -171 15 -25 25 -5 25 50 l0 59 -72 47 c-81 52
-260 144 -281 144 -7 0 -17 4 -22 9 -16 15 -175 60 -287 82 -228 44 -563 61
-783 38z m-1227 -445 c23 -3 42 -8 42 -11 0 -3 -32 -39 -71 -80 -39 -41 -98
-116 -131 -166 -66 -101 -158 -280 -158 -309 0 -10 -4 -18 -10 -18 -5 0 -10 2
-10 4 0 3 -9 49 -19 103 -39 196 -53 392 -31 433 24 44 211 66 388 44z m2498
-832 c10 -5 -6 -27 -52 -72 -112 -110 -220 -268 -270 -390 -30 -76 -40 -89
-48 -64 -34 115 -58 441 -36 493 12 31 16 32 105 45 43 6 286 -4 301 -12z
m-1885 -1521 c59 -37 111 -101 148 -182 33 -72 67 -225 57 -263 -9 -38 -53
-83 -93 -97 -35 -11 -38 -10 -59 17 -65 82 -81 98 -111 110 -18 8 -63 14 -101
14 -44 0 -73 5 -79 13 -22 27 -43 114 -43 177 0 116 33 178 114 216 68 32 112
31 167 -5z m969 -33 c62 -32 81 -63 87 -140 l5 -64 -63 -24 c-102 -36 -159
-111 -159 -205 1 -16 9 -55 20 -85 23 -65 16 -75 -57 -86 -64 -9 -128 2 -184
32 -78 43 -98 114 -61 219 24 68 204 328 245 354 43 28 110 27 167 -1z m1640
-133 l23 -24 -64 -98 c-72 -108 -70 -101 -59 -313 l5 -95 -47 -3 c-37 -2 -49
1 -56 15 -5 10 -15 75 -22 145 l-12 128 30 65 c52 110 126 205 160 205 10 0
29 -11 42 -25z m-2933 -224 c10 -31 12 -46 4 -54 -6 -6 -11 -23 -11 -39 0 -41
30 -53 88 -34 110 35 160 26 195 -33 40 -68 8 -145 -76 -185 -212 -101 -382
37 -309 249 23 65 71 147 84 143 6 -2 17 -23 25 -47z m3175 -226 c48 -8 112
-24 142 -36 82 -30 74 -55 -24 -83 -177 -50 -646 -56 -831 -11 -105 26 -105
52 1 94 65 25 197 54 211 46 17 -11 11 -83 -8 -94 -26 -14 -5 -31 45 -38 67
-9 210 6 216 23 4 9 -3 18 -18 24 -26 10 -38 33 -31 65 2 11 4 24 4 29 1 11
181 -1 293 -19z m178 -222 c0 -21 -7 -109 -15 -197 -12 -129 -18 -161 -32
-172 -10 -7 -21 -14 -25 -14 -17 0 -81 -67 -100 -104 -16 -30 -22 -60 -22
-115 -1 -66 -3 -75 -23 -84 -43 -19 -42 -83 0 -106 20 -11 29 -11 48 -1 13 7
27 18 32 24 5 7 18 0 37 -22 54 -58 32 -146 -40 -165 -17 -4 -20 0 -20 29 0
41 -29 74 -65 74 -27 0 -65 -31 -65 -54 0 -7 10 -25 21 -40 12 -15 18 -30 15
-34 -8 -7 -139 -22 -146 -16 -2 3 1 14 8 24 18 29 15 57 -8 80 -24 24 -57 26
-82 3 -20 -18 -24 -63 -6 -81 31 -31 -74 -24 -199 13 -63 19 -77 40 -95 144
-10 59 -10 81 2 129 9 33 15 105 15 172 0 104 -3 119 -25 160 -14 24 -43 56
-65 71 l-40 27 -26 129 c-14 70 -22 132 -18 137 5 5 43 2 91 -7 184 -35 554
-29 748 12 47 10 88 19 93 20 4 0 7 -16 7 -36z m-915 -349 c9 -4 26 -25 37
-48 18 -33 22 -58 22 -131 -1 -130 -28 -175 -107 -175 -64 0 -117 83 -117 183
0 50 28 134 52 157 22 20 78 27 113 14z"/>
<path d="M5516 4067 c3 -10 9 -15 12 -12 3 3 0 11 -7 18 -10 9 -11 8 -5 -6z"/>
<path d="M5361 4044 c0 -11 3 -14 6 -6 3 7 2 16 -1 19 -3 4 -6 -2 -5 -13z"/>
<path d="M5370 4015 c0 -5 5 -17 10 -25 5 -8 10 -10 10 -5 0 6 -5 17 -10 25
-5 8 -10 11 -10 5z"/>
<path d="M5525 3999 c-4 -6 -5 -12 -2 -15 2 -3 7 2 10 11 7 17 1 20 -8 4z"/>
<path d="M5531 3954 c0 -11 3 -14 6 -6 3 7 2 16 -1 19 -3 4 -6 -2 -5 -13z"/>
<path d="M5391 3944 c0 -11 3 -14 6 -6 3 7 2 16 -1 19 -3 4 -6 -2 -5 -13z"/>
<path d="M5530 3887 c0 -14 4 -28 9 -32 5 -3 8 6 7 20 -4 35 -16 44 -16 12z"/>
<path d="M5410 3850 c6 -11 13 -20 16 -20 2 0 0 9 -6 20 -6 11 -13 20 -16 20
-2 0 0 -9 6 -20z"/>
<path d="M5246 3789 c-50 -40 -24 -109 42 -109 56 0 82 70 42 110 -26 26 -51
25 -84 -1z"/>
<path d="M5474 3665 c-27 -27 -26 -54 4 -87 33 -38 112 -8 112 42 0 27 -43 70
-70 70 -11 0 -32 -11 -46 -25z"/>
<path d="M5262 3558 c-44 -54 16 -121 73 -84 27 18 34 63 13 84 -16 16 -73 15
-86 0z"/>
<path d="M5044 7566 c3 -16 6 -38 6 -51 0 -21 3 -22 110 -21 l109 1 7 43 c3
24 5 45 3 47 -2 2 -57 5 -122 7 l-119 3 6 -29z"/>
<path d="M7530 6687 l0 -44 133 -6 c211 -10 357 -42 493 -109 34 -16 74 -43
90 -59 27 -28 27 -29 15 -86 -33 -151 -142 -363 -250 -487 -65 -74 -74 -105
-40 -127 33 -22 59 -194 66 -434 6 -220 -5 -313 -52 -461 -60 -190 -216 -366
-399 -450 l-56 -25 0 -46 c0 -44 1 -45 28 -38 43 10 168 75 220 113 120 89
214 204 263 321 105 250 124 562 58 947 l-23 131 51 62 c125 154 233 410 233
550 0 50 -3 57 -38 91 -124 117 -405 200 -681 200 l-111 0 0 -43z"/>
<path d="M3884 6161 c-23 -10 -54 -36 -70 -56 -24 -32 -29 -47 -29 -100 0 -50
5 -69 27 -102 66 -100 229 -102 293 -4 63 95 31 217 -69 262 -52 24 -100 24
-152 0z"/>
<path d="M2585 6085 c-75 -26 -114 -98 -102 -187 11 -84 92 -144 181 -134 174
19 211 245 52 317 -49 22 -77 23 -131 4z"/>
<path d="M3042 5898 c-10 -13 -15 -39 -13 -71 0 -10 12 -29 26 -42 29 -30 96
-34 149 -8 35 16 37 16 88 -10 90 -46 183 -28 216 40 19 39 8 86 -22 91 -23 5
-36 -14 -36 -51 0 -54 -84 -60 -150 -12 -41 30 -67 31 -119 4 -57 -29 -85 -23
-89 21 -5 45 -29 63 -50 38z"/>
<path d="M3143 5439 c-30 -9 -55 -29 -35 -29 28 0 122 24 122 31 0 11 -45 10
-87 -2z"/>
<path d="M6160 5413 c-61 -23 -110 -95 -110 -163 0 -45 36 -108 79 -137 65
-44 184 -21 226 43 75 116 -6 266 -142 263 -21 0 -45 -3 -53 -6z"/>
<path d="M3213 5340 c-30 -12 -29 -20 3 -20 14 0 23 4 19 10 -4 6 15 10 50 10
31 0 54 -4 51 -9 -3 -5 8 -11 24 -13 39 -6 38 7 -1 21 -38 13 -115 13 -146 1z"/>
<path d="M4823 5299 c-45 -29 -66 -80 -61 -145 7 -82 65 -134 148 -134 85 0
141 52 148 137 6 67 -12 106 -61 141 -44 29 -128 30 -174 1z"/>
<path d="M7420 4369 c-48 -19 -246 -47 -380 -54 -74 -4 -141 -12 -147 -17 -16
-13 -17 -50 -1 -66 8 -8 53 -12 134 -12 l123 0 51 -58 c80 -91 166 -210 212
-294 24 -43 46 -78 51 -78 4 0 7 37 7 83 l0 83 -51 75 c-28 41 -74 103 -102
137 -35 45 -47 66 -38 71 7 5 45 14 84 21 101 18 109 23 105 72 -3 46 -11 51
-48 37z"/>
<path d="M7533 3698 c3 -68 13 -148 22 -178 9 -30 19 -100 22 -156 5 -87 2
-113 -21 -203 -31 -123 -38 -273 -10 -250 18 15 68 112 77 150 12 47 45 76
125 108 285 115 486 479 337 610 -42 36 -81 45 -136 31 -32 -9 -65 -34 -143
-109 -122 -118 -145 -135 -163 -119 -7 6 -13 15 -13 20 0 22 -83 218 -93 218
-6 0 -8 -44 -4 -122z m497 3 c37 -69 -23 -208 -138 -321 -75 -73 -198 -149
-213 -132 -6 6 -14 171 -10 214 0 10 20 27 44 39 23 12 88 66 144 120 83 81
107 99 132 99 20 0 34 -7 41 -19z"/>
</g>
</svg>
